<svg width="23" height="23" viewBox="0 0 23 23" fill="none" xmlns="http://www.w3.org/2000/svg">
<path d="M4.5105 10.1588C4.5105 8.53097 5.15716 6.96981 6.30821 5.81877C7.45926 4.66772 9.02041 4.02106 10.6482 4.02106C12.276 4.02106 13.8373 4.66772 14.9883 5.81877C16.1393 6.96981 16.786 8.53097 16.786 10.1588" stroke="black" stroke-width="0.929072" stroke-linecap="round" stroke-linejoin="round"/>
<path d="M4.5105 10.1588C4.5105 14.3188 9.12063 17.6605 10.6482 17.6605C12.1759 17.6605 16.786 14.3188 16.786 10.1588" stroke="black" stroke-width="0.929072" stroke-linecap="round" stroke-linejoin="round"/>
<path d="M10.6481 12.8867C12.1546 12.8867 13.3759 11.6654 13.3759 10.1588C13.3759 8.65222 12.1546 7.43091 10.6481 7.43091C9.14148 7.43091 7.92017 8.65222 7.92017 10.1588C7.92017 11.6654 9.14148 12.8867 10.6481 12.8867Z" stroke="black" stroke-width="0.929072" stroke-linecap="round" stroke-linejoin="round"/>
</svg>
